<svg width="58" height="58" viewBox="0 0 58 58" fill="none" xmlns="http://www.w3.org/2000/svg">
<rect width="58" height="58" rx="29" fill="#273953"/>
<g clip-path="url(#clip0_54_2125)">
<path d="M20.3887 17.0928C20.2373 17.1611 20.1592 17.2393 20.0811 17.4004C19.9834 17.6006 19.9785 17.6885 19.9785 18.7725V19.9297H18.7969C17.6885 19.9297 17.6055 19.9346 17.4004 20.0322C17.2393 20.1104 17.1611 20.1885 17.0928 20.3398C16.9658 20.623 16.9756 20.8037 17.1416 21.0576C17.3272 21.3408 21.6631 25.6572 21.8682 25.7598C22 25.8281 22.2344 25.8379 23.4063 25.8379H24.7881L26.8389 27.8936C27.9668 29.0264 28.9873 30.0127 29.1045 30.0908C29.2363 30.1787 29.3877 30.2324 29.4902 30.2324C29.8613 30.2324 30.2324 29.8613 30.2324 29.4902C30.2324 29.3877 30.1787 29.2363 30.0908 29.1045C30.0127 28.9873 29.0264 27.9668 27.8936 26.8389L25.8379 24.7881V23.4063C25.8379 22.2148 25.8281 22.0049 25.7549 21.8682C25.6572 21.6729 21.2969 17.2588 21.0576 17.1123C20.8428 16.9756 20.6523 16.9707 20.3887 17.0928Z" fill="white"/>
<path d="M28.2309 17.0781C27.1469 17.2051 25.9848 17.5078 24.9545 17.9229C24.6274 18.0596 24.3393 18.1865 24.3197 18.2061C24.2953 18.2305 24.7787 18.7481 25.3891 19.3535L26.4975 20.4619L27.0248 20.3203C27.933 20.0762 28.4994 20.0078 29.5248 20.0078C30.7357 20.0078 31.7123 20.1738 32.7475 20.5596C35.6869 21.6436 37.9428 24.1289 38.7045 27.1074C38.934 28.0108 38.9926 28.4893 38.9926 29.5C38.9926 30.5107 38.934 30.9893 38.7045 31.8926C37.8647 35.1787 35.1791 37.8643 31.893 38.7041C30.9897 38.9336 30.5111 38.9922 29.5004 38.9922C28.4897 38.9922 28.0111 38.9336 27.1078 38.7041C23.8217 37.8643 21.1361 35.1787 20.2963 31.8926C20.0668 30.999 20.0082 30.5107 20.0082 29.5244C20.0082 28.499 20.0766 27.9326 20.3207 27.0244L20.4623 26.4971L19.3539 25.3887C18.7484 24.7783 18.2309 24.2949 18.2065 24.3193C18.1869 24.3389 18.06 24.627 17.9232 24.9541C17.1859 26.7754 16.8832 28.7285 17.0492 30.5498C17.3813 34.1484 19.1635 37.3369 22.0541 39.5098C23.8998 40.8965 26.0873 41.7315 28.4506 41.9512C30.6283 42.1514 33.0844 41.6826 35.0668 40.6816C36.3998 40.0078 37.7963 38.9434 38.7533 37.8691C40.6283 35.7598 41.6928 33.3232 41.9516 30.5498C42.1518 28.3721 41.683 25.916 40.682 23.9336C39.4809 21.5508 37.4496 19.5195 35.0668 18.3184C33.016 17.2832 30.433 16.8145 28.2309 17.0781Z" fill="white"/>
<path d="M28.9712 23.0288C28.6539 23.0678 28.0289 23.1997 27.7164 23.2973L27.3843 23.395V23.8442V24.2885L28.2095 25.1137L29.0396 25.9438L29.6402 25.9536C30.2554 25.9633 30.5093 26.0122 30.9976 26.2172C32.0425 26.6616 32.8677 27.6381 33.1509 28.7563C33.19 28.9077 33.2193 29.269 33.2193 29.5864C33.2193 29.9038 33.19 30.2651 33.1509 30.4165C32.814 31.7544 31.7496 32.8188 30.4117 33.1557C30.065 33.2436 29.0982 33.2436 28.7515 33.1557C27.6334 32.8725 26.6568 32.0473 26.2125 31.0024C26.0074 30.5141 25.9586 30.2602 25.9488 29.645L25.939 29.0444L25.1089 28.2143L24.2837 27.3891H23.8394H23.3902L23.2925 27.7163C22.8287 29.2544 22.9166 30.7338 23.5562 32.2231C24.1861 33.6879 25.48 34.9819 26.9449 35.6118C28.0093 36.0708 29.0933 36.2465 30.1822 36.1391C31.7593 35.9829 33.1119 35.3432 34.2252 34.2299C35.3384 33.1167 35.9781 31.7641 36.1343 30.187C36.4419 27.0864 34.4253 24.1469 31.3931 23.2583C30.6851 23.0483 29.606 22.9458 28.9712 23.0288Z" fill="white"/>
</g>
<defs>
<clipPath id="clip0_54_2125">
<rect width="25" height="25" fill="white" transform="translate(17 17)"/>
</clipPath>
</defs>
</svg>
