<svg width="60" height="59" viewBox="0 0 60 59" fill="none" xmlns="http://www.w3.org/2000/svg">
<path d="M59.75 29.5C59.75 45.6504 46.4344 58.75 30 58.75C13.5656 58.75 0.25 45.6504 0.25 29.5C0.25 13.3496 13.5656 0.25 30 0.25C46.4344 0.25 59.75 13.3496 59.75 29.5Z" stroke="#838383" stroke-width="0.5"/>
<path d="M44.3673 29.3536C44.5626 29.1583 44.5626 28.8417 44.3673 28.6464L41.1854 25.4645C40.9901 25.2692 40.6735 25.2692 40.4783 25.4645C40.283 25.6597 40.283 25.9763 40.4783 26.1716L43.3067 29L40.4783 31.8284C40.283 32.0237 40.283 32.3403 40.4783 32.5355C40.6735 32.7308 40.9901 32.7308 41.1854 32.5355L44.3673 29.3536ZM21 29.5H44.0138V28.5H21V29.5Z" fill="#6F6F6F"/>
</svg>
