<svg width="60" height="59" viewBox="0 0 60 59" fill="none" xmlns="http://www.w3.org/2000/svg">
<path d="M0.25 29.5C0.25 45.6504 13.5656 58.75 30 58.75C46.4344 58.75 59.75 45.6504 59.75 29.5C59.75 13.3496 46.4344 0.25 30 0.25C13.5656 0.25 0.25 13.3496 0.25 29.5Z" stroke="#838383" stroke-width="0.5"/>
<path d="M15.6327 29.3536C15.4374 29.1583 15.4374 28.8417 15.6327 28.6464L18.8146 25.4645C19.0099 25.2692 19.3265 25.2692 19.5217 25.4645C19.717 25.6597 19.717 25.9763 19.5217 26.1716L16.6933 29L19.5217 31.8284C19.717 32.0237 19.717 32.3403 19.5217 32.5355C19.3265 32.7308 19.0099 32.7308 18.8146 32.5355L15.6327 29.3536ZM39 29.5H15.9862V28.5H39V29.5Z" fill="#6F6F6F"/>
</svg>
