<svg width="30" height="29" viewBox="0 0 30 29" fill="none" xmlns="http://www.w3.org/2000/svg">
<ellipse cx="15" cy="14.5" rx="15" ry="14.5" fill="#F4D07B"/>
<g clip-path="url(#clip0_54_2108)">
<path d="M11.6222 9.02792C11.5749 9.04511 11.5062 9.07304 11.4697 9.09238C11.3859 9.13534 10.7113 9.77988 10.5093 10.0055C10.3374 10.201 10.1763 10.4996 10.099 10.7639C9.70365 12.1303 10.5179 14.1519 12.3054 16.2402C12.6126 16.5969 13.5451 17.5143 13.921 17.8279C15.9363 19.5059 17.8333 20.2578 19.1869 19.9141C19.2792 19.8904 19.464 19.8174 19.5929 19.7551C19.8722 19.6176 19.9882 19.5187 20.5167 18.9687C20.9464 18.5219 20.9894 18.451 20.9894 18.1846C20.9894 17.8881 21.0066 17.9096 19.8894 16.7967C18.9656 15.8771 18.899 15.8127 18.7872 15.7762C18.6132 15.7182 18.4156 15.7268 18.2609 15.7976C18.162 15.8428 18.0611 15.9266 17.7904 16.1951C17.3435 16.6355 17.1953 16.7172 16.83 16.7172C16.6087 16.7172 16.4605 16.6699 16.1984 16.5238C15.3261 16.0361 14.5656 15.3658 13.964 14.5559C13.6611 14.1455 13.3796 13.6664 13.3173 13.458C13.2421 13.1916 13.2872 12.8564 13.4312 12.6244C13.4613 12.575 13.6331 12.3838 13.8158 12.2012C14.0757 11.9369 14.1574 11.8402 14.2025 11.7414C14.2734 11.5846 14.282 11.3869 14.224 11.2129C14.1874 11.1012 14.123 11.0346 13.2035 10.1107C12.1206 9.02363 12.1185 9.02148 11.8521 9.00859C11.7683 9.00429 11.6716 9.01288 11.6222 9.02792Z" fill="#292929"/>
</g>
<defs>
<clipPath id="clip0_54_2108">
<rect width="11" height="11" fill="white" transform="translate(10 9)"/>
</clipPath>
</defs>
</svg>
