<svg width="58" height="58" viewBox="0 0 58 58" fill="none" xmlns="http://www.w3.org/2000/svg">
<rect width="58" height="58" rx="29" fill="#273953"/>
<path d="M19.9396 16.0789C19.6066 16.1805 19.207 16.5258 19.092 16.8051C19.0133 17.0082 19.0011 18.3743 19.0011 28.9977C19.0011 42.4903 18.9527 41.2563 19.4855 41.6575C19.6429 41.7793 19.8851 41.9063 20.0183 41.9367C20.309 42.0129 32.8724 42.0231 33.0359 41.952C33.0965 41.9266 34.5375 40.718 36.2449 39.2657L39.3449 36.62L39.3328 35.5739L39.3146 34.5227L38.7697 34.4059C38.0916 34.2586 38.134 34.2739 36.7111 33.7203C35.3004 33.1719 34.9189 33.0856 34.0773 33.1364C33.7625 33.1567 33.2599 33.1871 32.9572 33.2075C32.497 33.2328 32.376 33.2582 32.2004 33.37C32.0853 33.441 31.8916 33.5325 31.7765 33.5629C31.4496 33.6594 29.3668 33.7 29.0277 33.6188C28.7008 33.5426 28.2527 33.2328 28.1437 33.0094L28.0711 32.8571H24.7713H21.4775L21.3322 32.7301C21.2353 32.6539 21.1808 32.5473 21.1808 32.4508C21.1808 32.3543 21.2353 32.2477 21.3322 32.1715L21.4775 32.0446H24.7652H28.0529L28.1982 31.6992C28.2769 31.5114 28.3556 31.3285 28.3738 31.293C28.392 31.2473 27.7078 31.2321 25.0619 31.2321H21.7197L21.5744 31.1051C21.3746 30.9426 21.3746 30.709 21.5744 30.5465L21.7197 30.4196H25.2496L28.7795 30.4145L28.9066 30.2469C29.0217 30.0946 29.0277 30.0489 28.9732 29.8407L28.9127 29.6071H25.3162H21.7197L21.5744 29.4801C21.4775 29.4039 21.423 29.2973 21.423 29.2008C21.423 29.1043 21.4775 28.9977 21.5744 28.9215L21.7197 28.7946H25.4857H29.2457L29.5363 28.6168C29.6937 28.5203 29.9299 28.3426 30.057 28.2258L30.2871 28.0075L25.9701 27.9821L21.6531 27.9567L21.5381 27.8348C21.3806 27.6723 21.3927 27.4438 21.5744 27.2965L21.7197 27.1696H26.2789H30.8441L30.9592 27.002C31.0197 26.9157 31.1953 26.7328 31.3406 26.6008L31.6131 26.3571H26.6664H21.7197L21.5744 26.2301C21.4775 26.1539 21.423 26.0473 21.423 25.9508C21.423 25.8543 21.4775 25.7477 21.5744 25.6715L21.7197 25.5446H27.6715H33.6232L34.3498 25.1383L35.0763 24.7321H28.398H21.7197L21.5744 24.6051C21.3746 24.4426 21.3746 24.209 21.5744 24.0465L21.7197 23.9196H29.173C36.3236 23.9196 36.6263 23.9246 36.7293 24.011C36.7959 24.0668 36.9715 24.1176 37.1592 24.1379C37.3287 24.1532 37.6435 24.2395 37.8554 24.3258L38.249 24.4782L38.6183 24.2801C38.8181 24.1684 39.0664 24.0618 39.1633 24.0465L39.3449 24.011V20.5325C39.3449 17.9883 39.3267 16.9981 39.2722 16.8508C39.2359 16.7391 39.0845 16.536 38.9392 16.4039C38.467 15.9621 39.2783 15.9977 29.1488 16.0028C21.4412 16.0028 20.1455 16.0129 19.9396 16.0789ZM36.7717 22.4215C36.9715 22.584 36.9715 22.8176 36.7717 22.9801L36.6263 23.1071H29.173H21.7197L21.5744 22.9801C21.4775 22.9039 21.423 22.7973 21.423 22.7008C21.423 22.6043 21.4775 22.4977 21.5744 22.4215L21.7197 22.2946H29.173H36.6263L36.7717 22.4215ZM36.9957 37.4629C36.5295 37.8793 35.5547 38.7071 34.8402 39.3063L33.5324 40.3981V38.6817V36.9653L33.6838 36.8434L33.8291 36.7164H35.8392H37.8433L36.9957 37.4629Z" fill="white"/>
<path d="M39.581 24.7779C39.351 24.8439 39.1875 24.9201 38.6971 25.2146L38.249 25.4888L37.9584 25.3111C37.0199 24.7525 36.699 24.8033 34.925 25.7986C33.8896 26.3775 33.7019 26.4638 33.1389 26.606C32.3154 26.8091 32.0127 27.0478 31.4496 27.9263C31.05 28.5458 30.7836 28.8302 30.3113 29.14C30.1176 29.2669 29.942 29.4244 29.9238 29.4904C29.8633 29.6783 30.0086 29.8865 30.2689 30.0083C30.3961 30.0693 30.5051 30.1353 30.5051 30.1556C30.499 30.1759 30.3234 30.2927 30.1115 30.4197C29.8996 30.5466 29.6937 30.7041 29.6514 30.7751C29.4758 31.0951 28.9308 32.4001 28.9308 32.4966C28.9308 32.5576 29.0035 32.6693 29.0883 32.7404L29.2457 32.8724L30.3598 32.847L31.4738 32.8216L31.8976 32.5576C32.273 32.3291 32.3396 32.3037 32.4547 32.3544C32.5516 32.3951 32.7574 32.4001 33.1933 32.3697C33.5324 32.3443 34.1076 32.324 34.4709 32.3291C35.3125 32.3291 35.706 32.4255 37.0441 32.9587C37.5951 33.1771 38.2914 33.431 38.5881 33.5224C39.0906 33.6748 39.1935 33.69 39.8959 33.6951L40.6588 33.7001L41.2703 33.9896C41.6033 34.147 41.9484 34.2791 42.0332 34.2791C42.3965 34.2791 42.6266 33.8576 42.3904 33.6291C42.3299 33.5732 41.9303 33.3599 41.5004 33.1619C40.8465 32.8572 40.6891 32.8013 40.5316 32.8318C39.6113 32.9892 39.1814 32.908 37.5891 32.2732C35.6394 31.4912 35.0219 31.3947 33.157 31.5673C32.7271 31.608 32.6969 31.5369 33.0238 31.2373C33.6111 30.6888 34.5617 30.6076 35.924 30.9884C36.5174 31.1509 36.8141 31.156 37.1834 30.9986C37.9099 30.6888 38.1764 29.8712 37.7344 29.3228C37.6496 29.2212 37.6012 29.1197 37.6314 29.0943C37.6557 29.074 38.1582 28.7693 38.7394 28.4189L39.793 27.7791L40.0291 27.972C40.3621 28.2412 41.016 28.9267 41.24 29.2466C41.3974 29.4701 41.6639 29.6732 42.7295 30.374C44.1342 31.3083 44.2371 31.349 44.5217 31.1052C44.7154 30.9478 44.7215 30.7091 44.5398 30.5568C44.4611 30.4958 43.9101 30.1201 43.3107 29.724C42.3359 29.0841 42.1846 28.9623 41.8758 28.5814C41.6881 28.3529 41.3248 27.9669 41.0766 27.7283L40.6224 27.2966L40.9252 27.0732C41.3611 26.7533 41.4943 26.5197 41.4943 26.0525C41.4943 25.7783 41.458 25.6208 41.3793 25.4939C41.2219 25.2451 40.9312 24.9962 40.6527 24.8744C40.3924 24.7626 39.8293 24.7119 39.581 24.7779ZM40.2168 25.5955C40.3863 25.6462 40.5558 25.8849 40.5558 26.0626C40.5498 26.281 40.3984 26.408 39.4902 26.9615L38.576 27.515L38.2308 27.1392C38.0432 26.931 37.8978 26.7431 37.9221 26.7177C37.9584 26.6669 39.5326 25.7021 39.7385 25.6056C39.8898 25.5345 40.017 25.5294 40.2168 25.5955ZM37.1894 25.8697L37.4256 25.9865L36.4629 26.5705C32.2973 29.0994 31.5162 29.5615 31.4314 29.5361C31.3527 29.5107 31.3648 29.4751 31.498 29.338C31.8129 29.013 32.1277 28.6119 32.376 28.2005C32.7029 27.6775 32.9209 27.5099 33.49 27.3677C34.0955 27.2154 34.3256 27.1087 35.4881 26.4587C36.3599 25.9712 36.7959 25.758 36.923 25.7478C36.9412 25.7478 37.0562 25.8037 37.1894 25.8697ZM37.4377 27.6013C37.6314 27.8146 37.7767 27.9923 37.7646 28.0025C37.7525 28.0126 37.0441 28.4443 36.1965 28.9572L34.6525 29.8916L34.1258 29.9474C33.8351 29.983 33.4598 30.0591 33.2842 30.1201L32.9693 30.2369L32.7998 30.0642L32.6242 29.8916L33.0541 29.6376C33.2902 29.4955 34.2832 28.8962 35.2519 28.3021C36.2207 27.713 37.032 27.2255 37.0502 27.2255C37.0683 27.2205 37.2439 27.3931 37.4377 27.6013ZM36.9836 29.922C36.9836 30.0591 36.8807 30.2064 36.7414 30.2673C36.6506 30.308 36.5355 30.3029 36.2873 30.2369C36.1057 30.1861 35.9543 30.1353 35.9543 30.1201C35.9603 30.1048 36.142 29.983 36.366 29.8458L36.7717 29.6072L36.8807 29.7138C36.9351 29.7748 36.9836 29.8662 36.9836 29.922ZM32.0369 30.9732C31.9582 31.1103 31.8734 31.3083 31.8553 31.415C31.831 31.5876 31.7766 31.6435 31.4859 31.8111C31.1711 31.999 31.1105 32.0142 30.6443 32.0345C30.3658 32.0498 30.1418 32.0396 30.1418 32.0142C30.1418 31.9431 30.4566 31.2626 30.5232 31.1916C30.5535 31.156 30.8683 30.958 31.2195 30.7498L31.8492 30.3689L32.0187 30.5517L32.1943 30.7294L32.0369 30.9732Z" fill="white"/>
</svg>
