<svg width="26" height="25" viewBox="0 0 26 25" fill="none" xmlns="http://www.w3.org/2000/svg">
<path d="M0 12.4475C0 5.57294 5.65603 0 12.5306 0V0C19.4052 0 25.0612 5.57294 25.0612 12.4475V12.4475C25.0612 19.3221 19.4052 24.895 12.5306 24.895V24.895C5.65603 24.895 0 19.3221 0 12.4475V12.4475Z" fill="#273953"/>
<path fill-rule="evenodd" clip-rule="evenodd" d="M12.5303 9.95312C11.6226 9.95312 10.8867 10.7127 10.8867 11.6497C10.8867 12.5868 11.6226 13.3464 12.5303 13.3464C13.438 13.3464 14.1738 12.5868 14.1738 11.6497C14.1738 10.7127 13.438 9.95312 12.5303 9.95312ZM12.5308 7.40625C14.7936 7.40625 16.6396 9.42324 16.6396 11.9264C16.6396 13.3814 15.418 15.2178 12.7895 17.3761V17.3761C12.6385 17.4986 12.4223 17.4995 12.272 17.3761C9.64355 15.2178 8.42188 13.3814 8.42188 11.9264C8.42188 9.42324 10.2679 7.40625 12.5308 7.40625Z" fill="white"/>
</svg>
