<svg width="26" height="25" viewBox="0 0 26 25" fill="none" xmlns="http://www.w3.org/2000/svg">
<path d="M0 12.4475C0 5.57294 5.65602 0 12.5306 0V0C19.4052 0 25.0612 5.57294 25.0612 12.4475V12.4475C25.0612 19.3221 19.4052 24.895 12.5306 24.895V24.895C5.65602 24.895 0 19.3221 0 12.4475V12.4475Z" fill="#273953"/>
<path fill-rule="evenodd" clip-rule="evenodd" d="M6.82414 8.36711C6.53125 8.66001 6.53125 9.13141 6.53125 10.0742V14.8242C6.53125 15.767 6.53125 16.2384 6.82414 16.5313C7.11704 16.8242 7.58844 16.8242 8.53125 16.8242H16.5312C17.4741 16.8242 17.9455 16.8242 18.2384 16.5313C18.5312 16.2384 18.5312 15.767 18.5312 14.8242V10.0742C18.5312 9.13141 18.5312 8.66001 18.2384 8.36711C17.9455 8.07422 17.4741 8.07422 16.5312 8.07422H8.53125C7.58844 8.07422 7.11704 8.07422 6.82414 8.36711ZM9.06125 9.72622C8.59291 9.43351 7.97596 9.57588 7.68325 10.0442C7.39054 10.5126 7.53291 11.1295 8.00125 11.4222L11.4713 13.591C12.1198 13.9963 12.9427 13.9963 13.5912 13.591L17.0612 11.4222C17.5296 11.1295 17.672 10.5126 17.3792 10.0442C17.0865 9.57588 16.4696 9.43351 16.0013 9.72622L12.5313 11.895L9.06125 9.72622Z" fill="white"/>
</svg>
