<svg width="26" height="26" viewBox="0 0 26 26" fill="none" xmlns="http://www.w3.org/2000/svg">
<path d="M0 12.8147C0 5.94013 5.65603 0.367188 12.5306 0.367188V0.367188C19.4052 0.367188 25.0612 5.94013 25.0612 12.8147V12.8147C25.0612 19.6893 19.4052 25.2622 12.5306 25.2622V25.2622C5.65603 25.2622 0 19.6893 0 12.8147V12.8147Z" fill="#273953"/>
<path d="M16.8682 13.7642L18.2449 15.0519C18.5684 15.3546 18.5684 15.8678 18.2449 16.1705C16.6574 17.6555 14.2465 17.8248 12.4669 16.5764L12.1407 16.3475C10.8569 15.4469 9.70736 14.3687 8.72638 13.1452L8.65451 13.0556C7.28028 11.3416 7.45804 8.85844 9.06239 7.35772C9.33165 7.10585 9.75007 7.10585 10.0193 7.35772L11.4178 8.66588C11.8403 9.06108 11.8403 9.73127 11.4178 10.1265L10.5493 10.9389C10.3464 11.1287 10.2964 11.4311 10.4274 11.6762C11.1458 13.0203 12.2802 14.0957 13.6608 14.7414L13.7926 14.803C14.0337 14.9158 14.3193 14.8705 14.5137 14.6886L15.502 13.7642C15.8864 13.4046 16.4838 13.4046 16.8682 13.7642Z" fill="white"/>
</svg>
