<svg width="38" height="38" viewBox="0 0 38 38" fill="none" xmlns="http://www.w3.org/2000/svg">
<path d="M18.0723 2.52344C17.3301 2.61992 17.6121 2.53828 9.05469 5.09883C4.72774 6.39023 1.0836 7.51836 0.905471 7.62227C-0.230075 8.26797 -0.282029 10.0789 0.816409 10.8062C0.994534 10.925 1.81836 11.2145 2.87969 11.5336L4.63867 12.068L4.67578 17.1816C4.72032 22.9039 4.67578 22.4957 5.26211 23.3715C5.81875 24.2027 6.42735 24.4551 6.79844 24.0172C7.08047 23.6906 7.03594 23.4309 6.62032 23.0152C5.93008 22.325 5.97461 22.7332 5.95235 17.2707L5.93008 12.4613L6.10078 12.5059C6.19727 12.5281 6.90977 12.7434 7.68164 12.9734L9.0918 13.4039L9.11407 20.9445L9.12891 28.4852L8.87656 28.5742C8.49063 28.7004 7.95625 29.1086 7.65196 29.5242C7.17696 30.1477 7.11016 30.5633 7.13985 32.5078C7.16211 34.3855 7.19922 34.534 7.76328 35.0312C8.27539 35.4766 8.43867 35.5137 9.83399 35.5137H11.0957L11.4965 35.291C11.927 35.0535 12.2535 34.675 12.4094 34.2297C12.4762 34.0441 12.5059 33.5246 12.5059 32.5969V31.2313L12.298 31.0531C12.0309 30.823 11.7191 30.823 11.452 31.0531L11.2441 31.2313L11.2219 32.5672C11.1922 33.8809 11.1922 33.9031 11.0066 34.0813C10.8359 34.2445 10.7766 34.252 9.78203 34.252H8.74297L8.56485 34.0441C8.38672 33.8363 8.38672 33.8141 8.38672 32.3371C8.38672 31.0457 8.40899 30.7934 8.52774 30.541C8.70586 30.1477 9.12891 29.784 9.47774 29.7246C10.0789 29.6281 10.1531 29.5984 10.2793 29.4574C10.398 29.3313 10.4129 29.1383 10.398 27.4609C10.3906 26.4441 10.4055 25.6055 10.4426 25.6055C10.4723 25.6055 10.7172 25.6574 10.9844 25.7242C11.8305 25.9172 13.9531 26.2586 15.2148 26.3996C16.959 26.5852 21.0633 26.5852 22.7852 26.3996C26.3477 26.0063 30.8082 24.9227 31.9215 24.173C32.4336 23.8391 32.8863 23.275 33.1238 22.6961C33.2797 22.3102 33.2871 22.2063 33.3094 18.5844L33.3316 14.8586L33.1609 14.6582C32.916 14.3762 32.4707 14.3762 32.2332 14.6582L32.0625 14.8512V18.3172C32.0625 20.5809 32.0328 21.8871 31.9809 22.0727C31.8621 22.4957 31.5727 22.9039 31.2016 23.1414C30.6746 23.4902 27.6168 24.3512 25.6055 24.7148C23.0375 25.175 20.8035 25.3457 18.1836 25.2863C15.6824 25.227 13.4855 24.9672 11.0215 24.4328L10.4277 24.3066L10.4055 18.8516L10.3906 13.3891L13.6711 12.0754L16.959 10.7617L17.4414 10.925C17.8422 11.0586 18.0945 11.0883 18.9629 11.0883C20.0613 11.0957 20.4695 11.0215 21.0781 10.7172C21.5309 10.4945 22.0207 9.96016 22.0875 9.61133C22.3176 8.3793 21.2711 7.48867 19.4453 7.36992C18.8813 7.33281 18.7922 7.34766 18.6215 7.48867C18.384 7.67422 18.3246 7.92656 18.4508 8.22344C18.5695 8.52031 18.7105 8.57969 19.3711 8.63164C20.284 8.70586 20.9445 9.01016 20.8332 9.30703C20.6031 9.9082 18.1836 10.0715 17.4191 9.53711C17.3301 9.47774 17.1668 9.42578 17.0555 9.42578C16.9367 9.42578 15.2668 10.0566 13.3445 10.8359C11.4223 11.6078 9.79688 12.2461 9.73008 12.2461C9.66328 12.2461 7.79297 11.6969 5.56641 11.0215C2.7461 10.1754 1.49922 9.76719 1.43242 9.6707C1.1875 9.34414 1.26172 8.86172 1.58086 8.69102C1.66992 8.64648 5.31407 7.54062 9.67071 6.23438C18.2875 3.65156 18.2801 3.65156 19.5789 3.78516C20.3879 3.87422 19.9203 3.74063 28.8711 6.42734C36.9016 8.83945 36.7383 8.78008 36.7383 9.24023C36.7383 9.70781 36.9609 9.62617 28.3813 12.209C19.8906 14.7547 19.5492 14.8438 18.4879 14.7324C17.8273 14.6656 17.241 14.532 15.9496 14.1387C14.6953 13.7527 14.4207 13.7305 14.1906 13.9754C13.968 14.2129 13.9754 14.6211 14.198 14.8289C14.3762 14.9922 16.3801 15.6379 17.3598 15.8457C18.5473 16.098 19.757 16.0609 20.9668 15.7418C22.5922 15.3113 36.6938 11.0289 37.0203 10.8656C38.3488 10.1902 38.2895 8.16406 36.9238 7.56289C36.523 7.38477 21.1004 2.76094 20.4844 2.63477C19.8238 2.50117 18.7031 2.44922 18.0723 2.52344Z" fill="black"/>
</svg>
