<svg width="31" height="31" viewBox="0 0 31 31" fill="none" xmlns="http://www.w3.org/2000/svg">
<path d="M0 15.5C0 6.93959 6.93959 0 15.5 0V0C24.0604 0 31 6.93959 31 15.5V15.5C31 24.0604 24.0604 31 15.5 31V31C6.93959 31 0 24.0604 0 15.5V15.5Z" fill="#273953"/>
<path fill-rule="evenodd" clip-rule="evenodd" d="M9.29289 11.4179C9 11.7108 9 12.1822 9 13.125V17.875C9 18.8178 9 19.2892 9.29289 19.5821C9.58579 19.875 10.0572 19.875 11 19.875H19C19.9428 19.875 20.4142 19.875 20.7071 19.5821C21 19.2892 21 18.8178 21 17.875V13.125C21 12.1822 21 11.7108 20.7071 11.4179C20.4142 11.125 19.9428 11.125 19 11.125H11C10.0572 11.125 9.58579 11.125 9.29289 11.4179ZM11.53 12.777C11.0617 12.4843 10.4447 12.6267 10.152 13.095C9.85929 13.5633 10.0017 14.1803 10.47 14.473L13.94 16.6417C14.5885 17.0471 15.4115 17.0471 16.06 16.6417L19.53 14.473C19.9983 14.1803 20.1407 13.5633 19.848 13.095C19.5553 12.6267 18.9383 12.4843 18.47 12.777L15 14.9458L11.53 12.777Z" fill="white"/>
</svg>
