<svg width="31" height="32" viewBox="0 0 31 32" fill="none" xmlns="http://www.w3.org/2000/svg">
<path d="M0 15.8672C0 7.30677 6.93959 0.367188 15.5 0.367188V0.367188C24.0604 0.367188 31 7.30677 31 15.8672V15.8672C31 24.4276 24.0604 31.3672 15.5 31.3672V31.3672C6.93959 31.3672 0 24.4276 0 15.8672V15.8672Z" fill="#273953"/>
<path d="M19.6495 17.8541L21.0261 19.1418C21.3497 19.4444 21.3497 19.9577 21.0261 20.2604C19.4386 21.7453 17.0277 21.9147 15.2482 20.6662L14.9219 20.4374C13.6382 19.5367 12.4886 18.4585 11.5076 17.2351L11.4358 17.1454C10.0615 15.4315 10.2393 12.9483 11.8436 11.4476C12.1129 11.1957 12.5313 11.1957 12.8006 11.4476L14.1991 12.7557C14.6216 13.1509 14.6216 13.8211 14.1991 14.2163L13.3306 15.0287C13.1277 15.2185 13.0776 15.521 13.2086 15.766C13.9271 17.1101 15.0615 18.1855 16.442 18.8312L16.5738 18.8928C16.815 19.0056 17.1005 18.9603 17.295 18.7785L18.2832 17.8541C18.6676 17.4945 19.265 17.4945 19.6495 17.8541Z" fill="white"/>
</svg>
