<svg width="31" height="31" viewBox="0 0 31 31" fill="none" xmlns="http://www.w3.org/2000/svg">
<path d="M0 15.5C0 6.93959 6.93959 0 15.5 0V0C24.0604 0 31 6.93959 31 15.5V15.5C31 24.0604 24.0604 31 15.5 31V31C6.93959 31 0 24.0604 0 15.5V15.5Z" fill="#273953"/>
<path fill-rule="evenodd" clip-rule="evenodd" d="M15.7885 12.1877C14.7305 12.1877 13.8729 13.1384 13.8729 14.3112C13.8729 15.484 14.7305 16.4347 15.7885 16.4347C16.8465 16.4347 17.7041 15.484 17.7041 14.3112C17.7041 13.1384 16.8465 12.1877 15.7885 12.1877ZM15.7891 9C18.4265 9 20.5781 11.5245 20.5781 14.6575C20.5781 16.4786 19.1542 18.777 16.0907 21.4783V21.4783C15.9175 21.6291 15.6597 21.6302 15.4875 21.4783C12.4239 18.777 11 16.4786 11 14.6575C11 11.5245 13.1516 9 15.7891 9Z" fill="white"/>
</svg>
