<svg width="134" height="56" viewBox="0 0 134 56" fill="none" xmlns="http://www.w3.org/2000/svg">
<path d="M46.0422 16.4807L40.9267 14.8881L41.2693 9.81819C25.4094 1.90081 10.6929 6.51928 5.31712 9.81819C4.83775 13.4509 5.70232 19.4147 6.19454 21.9425L32.2603 29.3897C31.1818 33.4764 25.7332 39.478 23.1437 41.968C21.0722 40.6603 16.852 35.6107 14.2592 29.8932L2.18048 26.183C0.170575 21.4278 -0.0947577 11.1342 0.0238136 6.58174C19.6722 -5.16935 39.0608 1.45344 46.2992 6.23371L46.0422 16.4807Z" fill="#273953"/>
<path d="M10.6282 34.5432L4.03137 32.7832C7.8742 43.7663 18.3977 52.7823 23.1792 55.9173C37.167 45.2094 44.151 33.127 45.219 22.0685L35.5331 19.0542L35.8883 13.5324C26.1507 8.48478 14.991 11.4292 10.6282 13.5324V17.4525L39.1739 25.8036C35.5105 38.0283 26.9843 46.4845 23.1792 49.1844C16.9722 44.6769 12.2256 37.5455 10.6282 34.5432Z" fill="#273953"/>
<path d="M65.9248 29.4327C64.4117 29.4327 62.9635 29.2074 61.5795 28.7571C60.1957 28.2874 59.098 27.6904 58.286 26.9662L59.5316 24.0004C60.3065 24.6464 61.2659 25.1847 62.4098 25.6153C63.5539 26.0462 64.7256 26.2614 65.9248 26.2614C66.9396 26.2614 67.7606 26.1441 68.3881 25.909C69.0153 25.6741 69.4765 25.3608 69.7718 24.9694C70.0669 24.5583 70.2145 24.0983 70.2145 23.5894C70.2145 22.963 70.0025 22.4638 69.5781 22.0919C69.1536 21.7003 68.6001 21.3969 67.9175 21.1816C67.2532 20.9467 66.5059 20.7314 65.6757 20.5356C64.8639 20.3399 64.0427 20.1148 63.2124 19.8603C62.4007 19.5862 61.6534 19.2436 60.9708 18.8326C60.3065 18.4019 59.7623 17.8342 59.3379 17.1295C58.9135 16.4248 58.7011 15.5243 58.7011 14.4281C58.7011 13.3123 58.9779 12.2944 59.5316 11.3744C60.1035 10.4348 60.9616 9.69091 62.1054 9.14279C63.2678 8.57512 64.7346 8.29126 66.5059 8.29126C67.6683 8.29126 68.8215 8.44788 69.9656 8.76108C71.1095 9.07428 72.1057 9.52452 72.9545 10.1118L71.8199 13.0774C70.9526 12.5293 70.0579 12.128 69.1351 11.8735C68.2126 11.5995 67.3269 11.4625 66.4783 11.4625C65.4819 11.4625 64.6702 11.5897 64.0427 11.8442C63.4338 12.0987 62.9818 12.4315 62.6868 12.8425C62.4098 13.2536 62.2714 13.7234 62.2714 14.252C62.2714 14.8783 62.4744 15.3873 62.8803 15.7788C63.3047 16.1508 63.8489 16.4444 64.5132 16.6597C65.1959 16.875 65.9524 17.0904 66.7827 17.3057C67.6129 17.5014 68.4342 17.7266 69.2459 17.9811C70.0762 18.2355 70.8235 18.5683 71.4878 18.9794C72.1704 19.3905 72.7146 19.9484 73.1205 20.6531C73.5449 21.3578 73.7572 22.2485 73.7572 23.3251C73.7572 24.4213 73.4712 25.4393 72.8991 26.3789C72.3456 27.2989 71.4878 28.0428 70.3253 28.6103C69.1629 29.1585 67.6959 29.4327 65.9248 29.4327ZM74.5849 29.139L83.3029 8.58491H86.8453L95.5911 29.139H91.8271L84.3269 10.6109H85.7661L78.2935 29.139H74.5849ZM78.5978 24.3822L79.5664 21.3871H90.0282L90.9969 24.3822H78.5978ZM105.98 29.4327C103.323 29.4327 101.238 28.6398 99.7254 27.0542C98.2308 25.4685 97.4835 23.1783 97.4835 20.1833V8.58491H101.081V20.0365C101.081 22.1506 101.506 23.6872 102.355 24.6464C103.222 25.6055 104.439 26.0853 106.008 26.0853C107.576 26.0853 108.785 25.6055 109.633 24.6464C110.482 23.6872 110.906 22.1506 110.906 20.0365V8.58491H114.449V20.1833C114.449 23.1783 113.692 25.4685 112.18 27.0542C110.685 28.6398 108.619 29.4327 105.98 29.4327ZM123.066 29.139V11.8148H116.646V8.58491H133.085V11.8148H126.664V29.139H123.066Z" fill="#273953"/>
<path d="M60.3189 40.5563H65.1999V42.1485H60.3189V40.5563ZM60.4591 45.0204H65.9992V46.6424H58.6357V36.2261H65.8031V37.8478H60.4591V45.0204ZM70.9649 46.7465C70.245 46.7465 69.5952 46.5778 69.0155 46.2405C68.4451 45.8934 67.9962 45.4172 67.669 44.812C67.3416 44.2069 67.1781 43.4927 67.1781 42.6691C67.1781 41.8458 67.3416 41.1317 67.669 40.5265C67.9962 39.9213 68.4451 39.4501 69.0155 39.1129C69.5952 38.7756 70.245 38.6069 70.9649 38.6069C71.5914 38.6069 72.1525 38.7557 72.648 39.0533C73.1435 39.3409 73.5363 39.7824 73.8261 40.3777C74.116 40.9727 74.261 41.7368 74.261 42.6691C74.261 43.5919 74.1207 44.3557 73.8402 44.9608C73.5598 45.5562 73.1716 46.0024 72.6761 46.3001C72.1806 46.5977 71.6102 46.7465 70.9649 46.7465ZM71.1753 45.1543C71.5962 45.1543 71.9702 45.0549 72.2973 44.8567C72.634 44.6581 72.9005 44.3706 73.0969 43.9937C73.3026 43.6166 73.4055 43.1752 73.4055 42.6691C73.4055 42.1533 73.3026 41.7118 73.0969 41.3448C72.9005 40.9679 72.634 40.6801 72.2973 40.4819C71.9702 40.2833 71.5962 40.1842 71.1753 40.1842C70.7545 40.1842 70.376 40.2833 70.0393 40.4819C69.7119 40.6801 69.4456 40.9679 69.2397 41.3448C69.0435 41.7118 68.9454 42.1533 68.9454 42.6691C68.9454 43.1752 69.0435 43.6166 69.2397 43.9937C69.4456 44.3706 69.7119 44.6581 70.0393 44.8567C70.376 45.0549 70.7545 45.1543 71.1753 45.1543ZM73.4476 46.6424V44.7674L73.5178 42.6542L73.3775 40.5414V35.601H75.1165V46.6424H73.4476ZM80.594 46.7465C79.958 46.7465 79.3971 46.6224 78.9109 46.3745C78.4247 46.1164 78.0459 45.7297 77.7749 45.2139C77.5036 44.6879 77.3681 44.0283 77.3681 43.2347V38.6962H79.1213V42.9817C79.1213 43.6961 79.2709 44.2316 79.57 44.5888C79.8786 44.9361 80.3135 45.1097 80.8744 45.1097C81.2859 45.1097 81.6411 45.0204 81.9405 44.8418C82.2489 44.6632 82.4873 44.3953 82.6557 44.0381C82.8333 43.6812 82.9222 43.2397 82.9222 42.7138V38.6962H84.6755V46.6424H83.0064V44.4995L83.301 45.1543C83.0485 45.6702 82.679 46.067 82.1927 46.3447C81.7065 46.6126 81.1737 46.7465 80.594 46.7465ZM90.4072 46.7465C89.6219 46.7465 88.9205 46.573 88.3032 46.2256C87.6955 45.8684 87.2188 45.3824 86.8726 44.7674C86.5267 44.1524 86.3538 43.4529 86.3538 42.6691C86.3538 41.8755 86.5267 41.1763 86.8726 40.5712C87.2188 39.9559 87.6955 39.4749 88.3032 39.1278C88.9205 38.7804 89.6219 38.6069 90.4072 38.6069C91.1367 38.6069 91.7769 38.7655 92.3288 39.0831C92.8897 39.3906 93.3153 39.8469 93.6051 40.4521L92.2586 41.2853C92.0342 40.9084 91.7584 40.6307 91.431 40.4521C91.1131 40.2735 90.7672 40.1842 90.3932 40.1842C89.9631 40.1842 89.575 40.2833 89.2291 40.4819C88.8831 40.6801 88.6119 40.9679 88.4155 41.3448C88.2193 41.7118 88.1211 42.1533 88.1211 42.6691C88.1211 43.185 88.2193 43.6315 88.4155 44.0086C88.6119 44.3756 88.8831 44.6581 89.2291 44.8567C89.575 45.0549 89.9631 45.1543 90.3932 45.1543C90.7672 45.1543 91.1131 45.065 91.431 44.8864C91.7584 44.7078 92.0342 44.4301 92.2586 44.053L93.6051 44.8864C93.3153 45.4817 92.8897 45.9429 92.3288 46.2703C91.7769 46.5879 91.1367 46.7465 90.4072 46.7465ZM99.7351 46.6424V45.0353L99.6369 44.693V41.8806C99.6369 41.335 99.4826 40.9135 99.174 40.6158C98.8654 40.3083 98.3979 40.1544 97.7714 40.1544C97.3508 40.1544 96.9345 40.2238 96.5232 40.3628C96.1211 40.5015 95.7799 40.695 95.4993 40.943L94.812 39.5889C95.214 39.2617 95.691 39.0185 96.2426 38.8599C96.8037 38.6911 97.3834 38.6069 97.9818 38.6069C99.0665 38.6069 99.9034 38.8846 100.492 39.4401C101.091 39.9857 101.39 40.834 101.39 41.9848V46.6424H99.7351ZM97.3789 46.7465C96.8177 46.7465 96.3268 46.6472 95.9062 46.4489C95.4853 46.2405 95.1579 45.9577 94.9242 45.6006C94.6998 45.2335 94.5875 44.8219 94.5875 44.3655C94.5875 43.9193 94.6857 43.5175 94.8821 43.1603C95.0878 42.8031 95.4199 42.5203 95.8781 42.3122C96.3363 42.1038 96.944 41.9997 97.7013 41.9997H99.8754V43.2347H97.8275C97.2291 43.2347 96.827 43.3389 96.6213 43.5472C96.4157 43.7455 96.3127 43.9937 96.3127 44.2911C96.3127 44.6284 96.439 44.8963 96.6915 45.0948C96.944 45.2931 97.2947 45.3924 97.7433 45.3924C98.1735 45.3924 98.557 45.2883 98.8934 45.0799C99.2396 44.8715 99.4873 44.5641 99.6369 44.1572L99.9315 45.2734C99.7631 45.7395 99.4593 46.1015 99.0197 46.3596C98.5895 46.6174 98.0427 46.7465 97.3789 46.7465ZM106.459 46.7465C105.636 46.7465 105.001 46.5233 104.552 46.0768C104.103 45.6205 103.879 44.951 103.879 44.0679V36.9402H105.632V44.0232C105.632 44.4003 105.721 44.693 105.898 44.9013C106.085 45.1097 106.343 45.2139 106.67 45.2139C107.062 45.2139 107.39 45.1046 107.651 44.8864L108.142 46.2108C107.937 46.3893 107.684 46.5233 107.385 46.6126C107.086 46.7019 106.777 46.7465 106.459 46.7465ZM102.644 40.2437V38.7557H107.637V40.2437H102.644ZM109.585 46.6424V38.6962H111.338V46.6424H109.585ZM110.468 37.3867C110.141 37.3867 109.87 37.2775 109.655 37.0593C109.449 36.8411 109.346 36.5783 109.346 36.2705C109.346 35.9532 109.449 35.6903 109.655 35.482C109.87 35.2638 110.141 35.1545 110.468 35.1545C110.796 35.1545 111.062 35.2587 111.268 35.4671C111.483 35.6656 111.59 35.9184 111.59 36.2261C111.59 36.5533 111.487 36.831 111.282 37.0593C111.076 37.2775 110.805 37.3867 110.468 37.3867ZM117.005 46.7465C116.238 46.7465 115.556 46.573 114.957 46.2256C114.359 45.8684 113.887 45.3824 113.541 44.7674C113.195 44.1524 113.022 43.4529 113.022 42.6691C113.022 41.8755 113.195 41.1763 113.541 40.5712C113.887 39.9559 114.359 39.4749 114.957 39.1278C115.556 38.7804 116.238 38.6069 117.005 38.6069C117.781 38.6069 118.468 38.7804 119.067 39.1278C119.675 39.4749 120.147 39.9511 120.483 40.5563C120.829 41.1614 121.002 41.8657 121.002 42.6691C121.002 43.4529 120.829 44.1524 120.483 44.7674C120.147 45.3824 119.675 45.8684 119.067 46.2256C118.468 46.573 117.781 46.7465 117.005 46.7465ZM117.005 45.1543C117.435 45.1543 117.819 45.0549 118.155 44.8567C118.492 44.6581 118.754 44.3706 118.941 43.9937C119.137 43.6166 119.235 43.1752 119.235 42.6691C119.235 42.1533 119.137 41.7118 118.941 41.3448C118.754 40.9679 118.492 40.6801 118.155 40.4819C117.819 40.2833 117.44 40.1842 117.019 40.1842C116.589 40.1842 116.206 40.2833 115.869 40.4819C115.542 40.6801 115.28 40.9679 115.084 41.3448C114.887 41.7118 114.789 42.1533 114.789 42.6691C114.789 43.1752 114.887 43.6166 115.084 43.9937C115.28 44.3706 115.542 44.6581 115.869 44.8567C116.206 45.0549 116.584 45.1543 117.005 45.1543ZM126.929 38.6069C127.527 38.6069 128.06 38.731 128.528 38.9789C129.005 39.2269 129.379 39.6088 129.65 40.1247C129.921 40.6307 130.056 41.2853 130.056 42.089V46.6424H128.303V42.3271C128.303 41.6225 128.144 41.0968 127.826 40.7497C127.518 40.4024 127.083 40.2288 126.522 40.2288C126.111 40.2288 125.746 40.3181 125.428 40.4967C125.11 40.6753 124.862 40.943 124.685 41.3002C124.516 41.6475 124.432 42.089 124.432 42.6245V46.6424H122.679V38.6962H124.348V40.839L124.053 40.1842C124.315 39.6782 124.694 39.2915 125.189 39.0236C125.694 38.7459 126.274 38.6069 126.929 38.6069Z" fill="#273953"/>
</svg>
